<svg width="203" height="24" viewBox="0 0 203 24" fill="none" xmlns="http://www.w3.org/2000/svg">
<path d="M20.984 0.439999V23H14.712V13.944H7.064V23H0.792V0.439999H7.064V8.92H14.712V0.439999H20.984ZM38.8453 19.32H30.8453L29.6293 23H23.0373L31.2613 0.439999H38.4933L46.6853 23H40.0613L38.8453 19.32ZM37.2773 14.52L34.8453 7.224L32.4453 14.52H37.2773ZM47.9615 11.672C47.9615 9.45333 48.4202 7.48 49.3375 5.752C50.2762 4.00267 51.5988 2.648 53.3055 1.688C55.0122 0.706666 56.9748 0.216 59.1935 0.216C62.0095 0.216 64.3775 0.973333 66.2975 2.488C68.2175 3.98133 69.4548 6.01867 70.0095 8.6H63.2575C62.8522 7.74667 62.2868 7.096 61.5615 6.648C60.8575 6.2 60.0362 5.976 59.0975 5.976C57.6468 5.976 56.4842 6.49867 55.6095 7.544C54.7562 8.568 54.3295 9.944 54.3295 11.672C54.3295 13.4213 54.7562 14.8187 55.6095 15.864C56.4842 16.888 57.6468 17.4 59.0975 17.4C60.0362 17.4 60.8575 17.176 61.5615 16.728C62.2868 16.28 62.8522 15.6293 63.2575 14.776H70.0095C69.4548 17.3573 68.2175 19.4053 66.2975 20.92C64.3775 22.4133 62.0095 23.16 59.1935 23.16C56.9748 23.16 55.0122 22.68 53.3055 21.72C51.5988 20.7387 50.2762 19.384 49.3375 17.656C48.4202 15.9067 47.9615 13.912 47.9615 11.672ZM86.3235 23L79.2515 13.112V23H72.9795V0.439999H79.2515V10.168L86.2595 0.439999H93.4915L85.2035 11.384L93.9075 23H86.3235Z" fill="#5C7489"/>
<path d="M104.71 23.224C102.086 23.224 99.9316 22.6053 98.2463 21.368C96.5609 20.1093 95.6543 18.3173 95.5263 15.992H102.214C102.278 16.7813 102.513 17.3573 102.918 17.72C103.324 18.0827 103.846 18.264 104.486 18.264C105.062 18.264 105.532 18.1253 105.894 17.848C106.278 17.5493 106.47 17.144 106.47 16.632C106.47 15.9707 106.161 15.4587 105.542 15.096C104.924 14.7333 103.921 14.328 102.534 13.88C101.062 13.3893 99.8676 12.92 98.9503 12.472C98.0543 12.0027 97.2649 11.3307 96.5823 10.456C95.9209 9.56 95.5903 8.39733 95.5903 6.968C95.5903 5.51733 95.9529 4.28 96.6783 3.256C97.4036 2.21067 98.4063 1.42133 99.6863 0.887999C100.966 0.354666 102.417 0.0879993 104.038 0.0879993C106.662 0.0879993 108.753 0.706666 110.31 1.944C111.889 3.16 112.732 4.87733 112.838 7.096H106.022C106.001 6.41333 105.788 5.90133 105.382 5.56C104.998 5.21867 104.497 5.048 103.878 5.048C103.409 5.048 103.025 5.18667 102.726 5.464C102.428 5.74133 102.278 6.136 102.278 6.648C102.278 7.07467 102.438 7.448 102.758 7.768C103.1 8.06667 103.516 8.33333 104.006 8.568C104.497 8.78133 105.222 9.05867 106.182 9.4C107.612 9.89067 108.785 10.3813 109.702 10.872C110.641 11.3413 111.441 12.0133 112.102 12.888C112.785 13.7413 113.126 14.8293 113.126 16.152C113.126 17.496 112.785 18.7013 112.102 19.768C111.441 20.8347 110.47 21.6773 109.19 22.296C107.932 22.9147 106.438 23.224 104.71 23.224ZM129.386 23L122.314 13.112V23H116.042V0.439999H122.314V10.168L129.322 0.439999H136.554L128.266 11.384L136.97 23H129.386ZM150.077 23.224C147.965 23.224 146.023 22.7333 144.253 21.752C142.482 20.7493 141.074 19.3733 140.029 17.624C139.005 15.8533 138.493 13.8587 138.493 11.64C138.493 9.42133 139.005 7.43733 140.029 5.688C141.074 3.91733 142.482 2.54133 144.253 1.56C146.023 0.578666 147.965 0.0879993 150.077 0.0879993C152.21 0.0879993 154.151 0.578666 155.901 1.56C157.671 2.54133 159.069 3.91733 160.093 5.688C161.117 7.43733 161.629 9.42133 161.629 11.64C161.629 13.8587 161.117 15.8533 160.093 17.624C159.069 19.3733 157.671 20.7493 155.901 21.752C154.13 22.7333 152.189 23.224 150.077 23.224ZM150.077 17.4C151.677 17.4 152.935 16.8773 153.853 15.832C154.791 14.7867 155.261 13.3893 155.261 11.64C155.261 9.848 154.791 8.44 153.853 7.416C152.935 6.37067 151.677 5.848 150.077 5.848C148.455 5.848 147.186 6.37067 146.269 7.416C145.351 8.44 144.893 9.848 144.893 11.64C144.893 13.4107 145.351 14.8187 146.269 15.864C147.186 16.888 148.455 17.4 150.077 17.4ZM175.264 23.224C173.152 23.224 171.211 22.7333 169.44 21.752C167.67 20.7493 166.262 19.3733 165.216 17.624C164.192 15.8533 163.68 13.8587 163.68 11.64C163.68 9.42133 164.192 7.43733 165.216 5.688C166.262 3.91733 167.67 2.54133 169.44 1.56C171.211 0.578666 173.152 0.0879993 175.264 0.0879993C177.398 0.0879993 179.339 0.578666 181.088 1.56C182.859 2.54133 184.256 3.91733 185.28 5.688C186.304 7.43733 186.816 9.42133 186.816 11.64C186.816 13.8587 186.304 15.8533 185.28 17.624C184.256 19.3733 182.859 20.7493 181.088 21.752C179.318 22.7333 177.376 23.224 175.264 23.224ZM175.264 17.4C176.864 17.4 178.123 16.8773 179.04 15.832C179.979 14.7867 180.448 13.3893 180.448 11.64C180.448 9.848 179.979 8.44 179.04 7.416C178.123 6.37067 176.864 5.848 175.264 5.848C173.643 5.848 172.374 6.37067 171.456 7.416C170.539 8.44 170.08 9.848 170.08 11.64C170.08 13.4107 170.539 14.8187 171.456 15.864C172.374 16.888 173.643 17.4 175.264 17.4ZM195.908 18.2H202.916V23H189.636V0.439999H195.908V18.2Z" fill="#FFA846"/>
</svg>
